<svg width="24" height="24" viewBox="0 0 24 24" fill="none" xmlns="http://www.w3.org/2000/svg">
<path d="M13.127 14.56L14.557 13.13L20.997 19.573L19.57 21L13.127 14.56ZM17.42 8.82998L20.28 5.96998C16.33 2.01998 9.92998 2.00998 5.97998 5.94998C9.90998 4.64998 14.29 5.69998 17.42 8.82998ZM5.94998 5.97998C2.00998 9.92998 2.01998 16.33 5.96998 20.28L8.82998 17.42C5.69998 14.29 4.64998 9.90998 5.94998 5.97998ZM5.96998 5.95998L5.95998 5.96998C5.57998 8.97998 7.12998 12.85 10.26 15.99L15.99 10.26C12.86 7.12998 8.97998 5.57998 5.96998 5.95998Z" fill="black" fill-opacity="0.7"/>
</svg>
