<svg width="24" height="24" viewBox="0 0 24 24" fill="none" xmlns="http://www.w3.org/2000/svg">
<g clip-path="url(#clip0_361_2459)">
<mask id="path-1-inside-1_361_2459" fill="white">
<path d="M9.31034 7.86206H6V8.68965H9.31034V7.86206Z"/>
</mask>
<path d="M6 7.86206V6.86206H5V7.86206H6ZM9.31034 7.86206H10.3103V6.86206H9.31034V7.86206ZM9.31034 8.68965V9.68965H10.3103V8.68965H9.31034ZM6 8.68965H5V9.68965H6V8.68965ZM6 7.86206V8.86206H9.31034V7.86206V6.86206H6V7.86206ZM9.31034 7.86206H8.31034V8.68965H9.31034H10.3103V7.86206H9.31034ZM9.31034 8.68965V7.68965H6V8.68965V9.68965H9.31034V8.68965ZM6 8.68965H7V7.86206H6H5V8.68965H6Z" fill="#1B5E20" mask="url(#path-1-inside-1_361_2459)"/>
<mask id="path-3-inside-2_361_2459" fill="white">
<path d="M9.31034 11.1724H6V11.9999H9.31034V11.1724Z"/>
</mask>
<path d="M6 11.1724V10.1724H5V11.1724H6ZM9.31034 11.1724H10.3103V10.1724H9.31034V11.1724ZM9.31034 11.9999V12.9999H10.3103V11.9999H9.31034ZM6 11.9999H5V12.9999H6V11.9999ZM6 11.1724V12.1724H9.31034V11.1724V10.1724H6V11.1724ZM9.31034 11.1724H8.31034V11.9999H9.31034H10.3103V11.1724H9.31034ZM9.31034 11.9999V10.9999H6V11.9999V12.9999H9.31034V11.9999ZM6 11.9999H7V11.1724H6H5V11.9999H6Z" fill="#1B5E20" mask="url(#path-3-inside-2_361_2459)"/>
<mask id="path-5-inside-3_361_2459" fill="white">
<path d="M9.31034 9.51733H6V10.3449H9.31034V9.51733Z"/>
</mask>
<path d="M6 9.51733V8.51733H5V9.51733H6ZM9.31034 9.51733H10.3103V8.51733H9.31034V9.51733ZM9.31034 10.3449V11.3449H10.3103V10.3449H9.31034ZM6 10.3449H5V11.3449H6V10.3449ZM6 9.51733V10.5173H9.31034V9.51733V8.51733H6V9.51733ZM9.31034 9.51733H8.31034V10.3449H9.31034H10.3103V9.51733H9.31034ZM9.31034 10.3449V9.34492H6V10.3449V11.3449H9.31034V10.3449ZM6 10.3449H7V9.51733H6H5V10.3449H6Z" fill="#1B5E20" mask="url(#path-5-inside-3_361_2459)"/>
<mask id="path-7-inside-4_361_2459" fill="white">
<path d="M9.31034 6.20679H6V7.03437H9.31034V6.20679Z"/>
</mask>
<path d="M6 6.20679V5.20679H5V6.20679H6ZM9.31034 6.20679H10.3103V5.20679H9.31034V6.20679ZM9.31034 7.03437V8.03437H10.3103V7.03437H9.31034ZM6 7.03437H5V8.03437H6V7.03437ZM6 6.20679V7.20679H9.31034V6.20679V5.20679H6V6.20679ZM9.31034 6.20679H8.31034V7.03437H9.31034H10.3103V6.20679H9.31034ZM9.31034 7.03437V6.03437H6V7.03437V8.03437H9.31034V7.03437ZM6 7.03437H7V6.20679H6H5V7.03437H6Z" fill="#1B5E20" mask="url(#path-7-inside-4_361_2459)"/>
<mask id="path-9-inside-5_361_2459" fill="white">
<path d="M18 7.86206H10.1379V8.68965H18V7.86206Z"/>
</mask>
<path d="M10.1379 7.86206V6.86206H9.13794V7.86206H10.1379ZM18 7.86206H19V6.86206H18V7.86206ZM18 8.68965V9.68965H19V8.68965H18ZM10.1379 8.68965H9.13794V9.68965H10.1379V8.68965ZM10.1379 7.86206V8.86206H18V7.86206V6.86206H10.1379V7.86206ZM18 7.86206H17V8.68965H18H19V7.86206H18ZM18 8.68965V7.68965H10.1379V8.68965V9.68965H18V8.68965ZM10.1379 8.68965H11.1379V7.86206H10.1379H9.13794V8.68965H10.1379Z" fill="#1B5E20" mask="url(#path-9-inside-5_361_2459)"/>
<mask id="path-11-inside-6_361_2459" fill="white">
<path d="M18 11.1724H10.1379V11.9999H18V11.1724Z"/>
</mask>
<path d="M10.1379 11.1724V10.1724H9.13794V11.1724H10.1379ZM18 11.1724H19V10.1724H18V11.1724ZM18 11.9999V12.9999H19V11.9999H18ZM10.1379 11.9999H9.13794V12.9999H10.1379V11.9999ZM10.1379 11.1724V12.1724H18V11.1724V10.1724H10.1379V11.1724ZM18 11.1724H17V11.9999H18H19V11.1724H18ZM18 11.9999V10.9999H10.1379V11.9999V12.9999H18V11.9999ZM10.1379 11.9999H11.1379V11.1724H10.1379H9.13794V11.9999H10.1379Z" fill="#1B5E20" mask="url(#path-11-inside-6_361_2459)"/>
<mask id="path-13-inside-7_361_2459" fill="white">
<path d="M18 9.51733H10.1379V10.3449H18V9.51733Z"/>
</mask>
<path d="M10.1379 9.51733V8.51733H9.13794V9.51733H10.1379ZM18 9.51733H19V8.51733H18V9.51733ZM18 10.3449V11.3449H19V10.3449H18ZM10.1379 10.3449H9.13794V11.3449H10.1379V10.3449ZM10.1379 9.51733V10.5173H18V9.51733V8.51733H10.1379V9.51733ZM18 9.51733H17V10.3449H18H19V9.51733H18ZM18 10.3449V9.34492H10.1379V10.3449V11.3449H18V10.3449ZM10.1379 10.3449H11.1379V9.51733H10.1379H9.13794V10.3449H10.1379Z" fill="#1B5E20" mask="url(#path-13-inside-7_361_2459)"/>
<mask id="path-15-inside-8_361_2459" fill="white">
<path d="M9.31034 12.8276H6V13.6552H9.31034V12.8276Z"/>
</mask>
<path d="M6 12.8276V11.8276H5V12.8276H6ZM9.31034 12.8276H10.3103V11.8276H9.31034V12.8276ZM9.31034 13.6552V14.6552H10.3103V13.6552H9.31034ZM6 13.6552H5V14.6552H6V13.6552ZM6 12.8276V13.8276H9.31034V12.8276V11.8276H6V12.8276ZM9.31034 12.8276H8.31034V13.6552H9.31034H10.3103V12.8276H9.31034ZM9.31034 13.6552V12.6552H6V13.6552V14.6552H9.31034V13.6552ZM6 13.6552H7V12.8276H6H5V13.6552H6Z" fill="#1B5E20" mask="url(#path-15-inside-8_361_2459)"/>
<path d="M3.70923 0.551758H15.718C15.7763 0.551771 15.8361 0.57711 15.8772 0.618164L20.6926 5.43262C20.713 5.45317 20.7252 5.47244 20.7356 5.51074C20.7494 5.56159 20.759 5.64156 20.759 5.78418V16.4482H3.24146V1.21094C3.24146 0.916967 3.33179 0.759619 3.4104 0.678711C3.49401 0.592825 3.60395 0.551758 3.70923 0.551758Z" stroke="#1B5E20" stroke-width="1.10345"/>
<path d="M16.6985 2.24316C17.1224 2.69951 17.6583 3.26785 18.094 3.70117C18.492 4.09695 19.0124 4.58539 19.4299 4.97168C19.459 4.99859 19.4878 5.02487 19.5159 5.05078H16.552V2.08398C16.5992 2.13497 16.6479 2.18875 16.6985 2.24316Z" fill="#1B5E20" stroke="#1B5E20" stroke-width="1.10345"/>
<path d="M20.759 17.5173V23.1726C20.759 23.1599 20.7572 23.2236 20.6458 23.3142C20.5421 23.3984 20.4077 23.448 20.2913 23.448H15.0413L15.1917 22.9197H15.7815L15.9045 22.5378L17.262 18.3455L17.4963 17.6238H15.552L15.4377 18.0242L14.9592 19.7039L14.51 18.032L14.3997 17.6238H12.4534L12.4739 17.6921C12.3746 17.6578 12.2717 17.6318 12.1672 17.613C11.9595 17.5757 11.7509 17.5564 11.5432 17.5564C11.3163 17.5564 11.0936 17.5914 10.8792 17.6658C10.6643 17.7403 10.4681 17.8506 10.2971 17.9988C10.1646 18.1136 10.0528 18.2464 9.96411 18.3943L9.72876 18.1648C9.52223 17.9638 9.28438 17.8091 9.01685 17.7058H9.01587C8.75205 17.6045 8.47345 17.5564 8.18481 17.5564C7.94819 17.5564 7.71736 17.5893 7.49634 17.6589L7.27856 17.741C6.99267 17.8663 6.74381 18.0487 6.5354 18.2849C6.32087 18.5272 6.16462 18.8177 6.05688 19.1414C5.94564 19.4753 5.89578 19.8449 5.89575 20.24C5.89575 20.6356 5.94597 21.0062 6.05688 21.3416C6.16463 21.6672 6.32103 21.9577 6.53442 22.2C6.74282 22.4365 6.99146 22.62 7.27759 22.7439C7.56245 22.8672 7.86752 22.9246 8.18481 22.9246C8.47271 22.9245 8.75182 22.8775 9.01685 22.7751L9.01587 22.7742C9.27835 22.6732 9.51166 22.5219 9.71509 22.3269L9.88892 22.4802C10.0006 22.579 10.1257 22.6556 10.2571 22.7146C10.3802 22.7698 10.5084 22.8122 10.6389 22.8425L10.6409 22.8435C10.7577 22.8701 10.8783 22.8904 11.0022 22.9021C11.1127 22.9125 11.2237 22.9187 11.3342 22.9187C11.6003 22.9187 11.8586 22.8787 12.0989 22.7859C12.3234 22.6991 12.527 22.5769 12.6985 22.4148C12.8649 22.2574 12.9953 22.0722 13.0872 21.863C13.1567 21.7054 13.2011 21.5401 13.218 21.3689L13.2258 21.196C13.2251 20.907 13.168 20.6197 13.0149 20.3689L13.0139 20.3669L12.9153 20.2224C12.8105 20.0832 12.686 19.9595 12.5413 19.8552C12.3796 19.7388 12.2047 19.638 12.0178 19.5564L11.8206 19.4656C11.7583 19.4353 11.6989 19.4053 11.6428 19.3748C11.5772 19.339 11.5287 19.302 11.4915 19.2683C11.5027 19.2579 11.5159 19.2478 11.5344 19.238C11.5373 19.2365 11.5391 19.2355 11.5403 19.2351C11.5415 19.2348 11.5445 19.2346 11.5491 19.2341L11.5481 19.2332C11.6631 19.2237 11.736 19.2246 11.7766 19.2283C11.8067 19.231 11.8275 19.2345 11.8411 19.2371C11.8435 19.2375 11.8462 19.2367 11.8479 19.2371V19.238C11.8632 19.2436 11.8712 19.2468 11.8733 19.2478C11.8732 19.2478 11.8718 19.2472 11.8694 19.2458C11.8661 19.244 11.8591 19.2396 11.8508 19.2341C11.8926 19.262 11.9396 19.2912 11.9905 19.3162L12.345 19.49L12.6243 19.2107C12.6532 19.1817 12.6726 19.1557 12.679 19.1472C12.6878 19.1352 12.6943 19.1243 12.6985 19.1179C12.7069 19.1051 12.7144 19.0933 12.719 19.0857C12.7285 19.0697 12.7395 19.0514 12.7493 19.0339L12.7512 19.0291C12.7722 18.9908 12.7976 18.9449 12.8254 18.8914L12.8264 18.8884C12.8304 18.8807 12.8336 18.8728 12.8372 18.866L13.97 22.531L14.0901 22.9197H14.6809L14.8235 23.448H3.70923C3.59274 23.448 3.45739 23.3984 3.35376 23.3142C3.24261 23.2238 3.24146 23.1599 3.24146 23.1726V17.5173H20.759ZM9.76294 18.9246C9.74114 19.0386 9.73071 19.1554 9.73071 19.2732C9.73076 19.5535 9.79026 19.8331 9.94751 20.0789C10.0396 20.2226 10.1491 20.3524 10.2756 20.4666L10.4075 20.5759C10.5677 20.6973 10.7397 20.8024 10.9221 20.8914C11.0652 20.9611 11.1957 21.0295 11.3137 21.0964C11.3888 21.139 11.444 21.1812 11.4856 21.2195C11.4845 21.2372 11.4825 21.2494 11.4807 21.2576C11.4597 21.2654 11.4144 21.2781 11.3284 21.2781C11.2905 21.2781 11.2416 21.274 11.1799 21.2634H11.1809C11.1107 21.2511 11.0425 21.2364 10.9768 21.2175L10.9739 21.2166L10.7542 21.1472C10.6942 21.1264 10.6613 21.1101 10.6477 21.1023L10.011 20.7361L9.83618 21.45L9.802 21.5886L9.70825 21.5066L9.23853 21.0935L8.82837 20.7332L8.46411 21.1394C8.41283 21.1965 8.37004 21.2224 8.33911 21.2351C8.28966 21.2554 8.23424 21.2673 8.16724 21.2673C8.1125 21.2673 8.06475 21.2566 8.01782 21.2341C7.98546 21.2186 7.9416 21.1878 7.88989 21.1199C7.84733 21.064 7.79844 20.9704 7.75708 20.8191C7.71897 20.6796 7.69339 20.4919 7.6897 20.2468C7.69302 19.9885 7.71957 19.7946 7.75903 19.6541C7.77996 19.5796 7.80307 19.5191 7.82642 19.4705L7.89575 19.3572C7.94735 19.2919 7.98826 19.2668 8.01489 19.2556H8.01587C8.07193 19.2321 8.13255 19.2195 8.20142 19.2195C8.25013 19.2195 8.29675 19.2283 8.34497 19.2488C8.37095 19.2598 8.40899 19.2836 8.4563 19.3386L8.82251 19.7644L9.24146 19.3904L9.71118 18.9714L9.76294 18.9246Z" fill="#1B5E20" stroke="#1B5E20" stroke-width="1.10345"/>
<mask id="path-20-inside-9_361_2459" fill="white">
<path d="M18 12.8276H10.1379V13.6552H18V12.8276Z"/>
</mask>
<path d="M10.1379 12.8276V11.8276H9.13794V12.8276H10.1379ZM18 12.8276H19V11.8276H18V12.8276ZM18 13.6552V14.6552H19V13.6552H18ZM10.1379 13.6552H9.13794V14.6552H10.1379V13.6552ZM10.1379 12.8276V13.8276H18V12.8276V11.8276H10.1379V12.8276ZM18 12.8276H17V13.6552H18H19V12.8276H18ZM18 13.6552V12.6552H10.1379V13.6552V14.6552H18V13.6552ZM10.1379 13.6552H11.1379V12.8276H10.1379H9.13794V13.6552H10.1379Z" fill="#1B5E20" mask="url(#path-20-inside-9_361_2459)"/>
</g>
<defs>
<clipPath id="clip0_361_2459">
<rect width="24" height="24" fill="white"/>
</clipPath>
</defs>
</svg>
