<svg width="24" height="24" viewBox="0 0 24 24" fill="none" xmlns="http://www.w3.org/2000/svg">
<path d="M20.7012 5.75165C20.6998 5.64143 20.6652 5.53278 20.5896 5.44695L15.9618 0.160951C15.9609 0.159594 15.9595 0.159113 15.9582 0.157756C15.9305 0.126809 15.8988 0.101421 15.8648 0.0791842C15.8547 0.0725308 15.8446 0.0666653 15.834 0.0607561C15.8041 0.0447791 15.7734 0.0316037 15.7412 0.02193C15.7325 0.0193036 15.7247 0.0158456 15.7159 0.0134381C15.6806 0.00529646 15.6447 0 15.6079 0H4.23526C3.71643 0 3.29407 0.422447 3.29407 0.941194V23.0588C3.29407 23.5779 3.71643 24 4.23526 24H19.7647C20.2839 24 20.7058 23.5779 20.7058 23.0588V5.80422C20.7058 5.78666 20.7031 5.76898 20.7012 5.75165ZM7.24628 22.2459L6.83692 21.4272C6.66927 21.1116 6.56211 20.8768 6.43456 20.6153H6.42112C6.32723 20.8768 6.21325 21.1116 6.07243 21.4272L5.69665 22.2459H4.52959L5.83786 19.9578L4.57669 17.7241H5.75075L6.14654 18.5497C6.28061 18.8244 6.38133 19.0455 6.48888 19.3006H6.50201C6.60956 19.012 6.69663 18.8109 6.81048 18.5497L7.19309 17.7241H8.36015L7.08559 19.9308L8.42752 22.2459L7.24628 22.2459ZM11.8006 22.2459H8.97616V17.7241H10.0027V21.3865H11.8006V22.2459ZM13.5108 22.3125C12.9945 22.3125 12.4848 22.1784 12.2298 22.0375L12.4375 21.1924C12.7127 21.3329 13.1355 21.4738 13.5711 21.4738C14.041 21.4738 14.2889 21.2796 14.2889 20.9839C14.2889 20.7027 14.0743 20.5414 13.531 20.347C12.7798 20.0855 12.2899 19.6696 12.2899 19.012C12.2899 18.2406 12.9337 17.6503 14.0008 17.6503C14.5103 17.6503 14.8864 17.7574 15.1543 17.8785L14.9264 18.7037C14.7451 18.6166 14.4232 18.4888 13.9803 18.4888C13.5376 18.4888 13.3232 18.6899 13.3232 18.9252C13.3232 19.2135 13.578 19.341 14.1617 19.5621C14.9599 19.8577 15.3354 20.2733 15.3354 20.9105C15.3355 21.6686 14.7518 22.3125 13.5108 22.3125ZM18.4076 22.2459L17.9981 21.4272C17.8303 21.1116 17.7233 20.8768 17.5955 20.6153H17.5826C17.4889 20.8768 17.3745 21.1116 17.2336 21.4272L16.8579 22.2459H15.6907L16.9988 19.9578L15.7375 17.7241H16.9117L17.3078 18.5497C17.4418 18.8244 17.5422 19.0455 17.6495 19.3006H17.6631C17.7702 19.012 17.8574 18.8109 17.9717 18.5497L18.3541 17.7241H19.5213L18.2468 19.9308L19.5884 22.2459L18.4076 22.2459ZM4.23526 15.9806V0.941412H15.1373V5.75703C15.1373 6.01682 15.3478 6.22758 15.6079 6.22758H19.7647L19.7651 15.9806H4.23526Z" fill="#1B5E20"/>
<path d="M13.6103 6.04077H9.94371H5.80652V7.8055V8.04078V9.57018V9.80546V11.3348V11.5701V13.335H9.70843H9.94371H13.6103H13.8456H17.7475V11.3348V9.80546V8.04078V7.8055V6.04077H13.6103ZM13.6103 9.57023H9.94371V8.04082H13.6103V9.57023ZM6.04184 6.27609H9.70843V7.8055H6.04184V6.27609ZM6.04184 8.04082H9.70843V9.57023H6.04184V8.04082ZM6.04184 9.8055H9.70843V11.3349H6.04184V9.8055ZM6.04184 13.0997V11.5702H9.70843V13.0997H6.04184ZM9.94371 13.0997V11.5702H13.6103V13.0997H9.94371ZM17.5124 13.0997H13.8456V11.5702H17.5121V13.0997H17.5124ZM17.5124 9.57023H13.8456V8.04082H17.5121V9.57023H17.5124ZM13.8456 7.8055V6.27609H17.5122V7.8055H13.8456Z" fill="#1B5E20"/>
</svg>
