<svg width="24" height="24" viewBox="0 0 24 24" fill="none" xmlns="http://www.w3.org/2000/svg">
<g clip-path="url(#clip0_15_3991)">
<path d="M11.6488 18.0696C11.3607 18.0696 11.1746 18.0951 11.0644 18.1204V21.8554C11.1748 21.881 11.3527 21.881 11.5134 21.881C12.6819 21.8892 13.4443 21.2458 13.4443 19.8821C13.4526 18.6962 12.7582 18.0696 11.6488 18.0696Z" fill="#B71C1C"/>
<path d="M6.65951 18.0528C6.39711 18.0528 6.21925 18.0781 6.12583 18.1034V19.789C6.23611 19.8143 6.37171 19.823 6.55733 19.823C7.24391 19.823 7.66717 19.4756 7.66717 18.8913C7.66722 18.3662 7.30282 18.0528 6.65951 18.0528Z" fill="#B71C1C"/>
<path d="M20.7012 5.75128C20.6998 5.64121 20.6649 5.5325 20.5893 5.44657L15.9618 0.160958L15.9581 0.157647C15.9305 0.126841 15.8988 0.101438 15.8648 0.0790413C15.8547 0.0725053 15.8441 0.066623 15.8335 0.0606535C15.8041 0.0447058 15.7733 0.0314596 15.7407 0.0217865C15.7324 0.0192592 15.7242 0.0156862 15.7154 0.0134205C15.6805 0.00496731 15.6442 0 15.6079 0H4.23524C3.71638 0 3.29407 0.422352 3.29407 0.941218V23.0588C3.29407 23.5779 3.71638 24 4.23524 24H19.7646C20.2835 24 20.7058 23.5779 20.7058 23.0588V5.804C20.7058 5.78631 20.7031 5.76897 20.7012 5.75128ZM8.4209 20.2123C7.98064 20.6272 7.32844 20.8139 6.56604 20.8139C6.39689 20.8139 6.244 20.8051 6.12587 20.7886V22.8295H4.84701V17.1971C5.24487 17.1296 5.80417 17.0786 6.59197 17.0786C7.38792 17.0786 7.95545 17.2311 8.33645 17.5358C8.70086 17.8239 8.94582 18.2982 8.94582 18.857C8.94582 19.4163 8.75994 19.8906 8.4209 20.2123ZM13.8671 22.1521C13.2665 22.6516 12.3517 22.8888 11.2341 22.8888C10.5649 22.8888 10.0908 22.8465 9.76844 22.8042V17.1971C10.2428 17.1213 10.8614 17.0786 11.5134 17.0786C12.5969 17.0786 13.3 17.2734 13.8508 17.6884C14.4439 18.1289 14.8166 18.8318 14.8166 19.8396C14.8161 20.9324 14.4181 21.6861 13.8671 22.1521ZM19.1534 18.1797H16.9594V19.4839H19.0091V20.5345H16.9594V22.8295H15.664V17.1213H19.1534V18.1797ZM4.23524 15.9805V0.941218H15.1373V5.75668C15.1373 6.01642 15.3478 6.22727 15.6079 6.22727H19.7646L19.7651 15.9805H4.23524Z" fill="#B71C1C"/>
<path d="M16.828 10.1148C16.8004 10.1122 16.1373 10.0517 15.1194 10.0517C14.8005 10.0517 14.4793 10.0579 14.1622 10.0699C12.152 8.56138 10.5056 7.05171 9.62412 6.20565C9.6402 6.11249 9.65127 6.03886 9.65641 5.9823C9.77266 4.75507 9.64342 3.92657 9.27358 3.51978C9.0314 3.25394 8.67571 3.16548 8.30482 3.26679C8.07449 3.32714 7.64813 3.55058 7.51162 4.00544C7.3609 4.5081 7.60317 5.11816 8.23964 5.82561C8.24974 5.83633 8.46574 6.06265 8.8582 6.44613C8.60312 7.66238 7.93541 10.287 7.61144 11.5473C6.85053 11.9539 6.21655 12.4437 5.72574 13.0055L5.69358 13.0423L5.6728 13.0864C5.62225 13.1926 5.38064 13.7438 5.56204 14.1866C5.64487 14.3879 5.80008 14.535 6.01092 14.6122L6.06744 14.6274C6.06744 14.6274 6.11842 14.6384 6.20805 14.6384C6.60064 14.6384 7.5697 14.4321 8.08948 12.5166L8.21541 12.0313C10.0297 11.1494 12.2977 10.8649 13.9415 10.7857C14.7871 11.4127 15.6286 11.9888 16.4438 12.4989L16.4705 12.5143C16.51 12.5345 16.8675 12.711 17.2862 12.7114C17.8845 12.7114 18.3216 12.3442 18.4843 11.7043L18.4925 11.6606C18.538 11.2949 18.4461 10.9653 18.2269 10.7076C17.7651 10.1647 16.9053 10.1174 16.828 10.1148ZM6.22269 13.9322C6.21903 13.9278 6.21729 13.9237 6.21546 13.9191C6.17641 13.8251 6.22326 13.5971 6.29219 13.4301C6.58814 13.0992 6.94338 12.7955 7.35332 12.522C6.9541 13.8143 6.37354 13.926 6.22269 13.9322ZM8.75741 5.34618C8.14434 4.66374 8.15354 4.3254 8.18652 4.2115C8.24064 4.02113 8.48491 3.94919 8.487 3.94853C8.61005 3.91507 8.68473 3.92165 8.75122 3.99463C8.90159 4.15982 9.03075 4.65834 8.97972 5.57276C8.83497 5.42731 8.75741 5.34618 8.75741 5.34618ZM8.44064 11.1576L8.45123 11.1172L8.44983 11.1177C8.7568 9.91536 9.1995 8.15489 9.45406 7.02404L9.46325 7.0328L9.46416 7.02739C10.2877 7.80291 11.5504 8.93724 13.0624 10.117L13.0454 10.1177L13.0704 10.1366C11.6461 10.2569 9.9449 10.5377 8.44064 11.1576ZM17.7945 11.552C17.6861 11.9506 17.4774 12.005 17.2862 12.005C17.0643 12.005 16.8506 11.9127 16.8019 11.8903C16.2467 11.5424 15.6788 11.1632 15.1056 10.7575C15.1102 10.7575 15.1144 10.7575 15.1194 10.7575C16.1019 10.7575 16.7564 10.8172 16.7821 10.819C16.9462 10.8251 17.4655 10.9018 17.6892 11.1649C17.777 11.268 17.8106 11.3913 17.7945 11.552Z" fill="#B71C1C"/>
</g>
<defs>
<clipPath id="clip0_15_3991">
<rect width="24" height="24" fill="white"/>
</clipPath>
</defs>
</svg>
