<svg width="24" height="24" viewBox="0 0 24 24" fill="none" xmlns="http://www.w3.org/2000/svg">
<path d="M20.7012 5.75153C20.6999 5.64135 20.6652 5.53266 20.5896 5.44687L15.9618 0.160864C15.9609 0.159507 15.9595 0.159025 15.9582 0.157668C15.9306 0.126853 15.8989 0.101333 15.8649 0.0790531C15.8547 0.0723996 15.8446 0.0665341 15.834 0.0607124C15.8041 0.0447355 15.7734 0.0315162 15.7412 0.0218425C15.7325 0.0193037 15.7247 0.0157581 15.7159 0.0133506C15.6806 0.00516515 15.6447 0 15.608 0H4.23526C3.71643 0 3.29407 0.42236 3.29407 0.941195V23.0589C3.29407 23.5779 3.71643 24 4.23526 24H19.7647C20.2839 24 20.7059 23.5779 20.7059 23.0589V5.80401C20.7059 5.78632 20.7032 5.76886 20.7012 5.75153ZM6.5644 21.5972L6.27572 21.0198C6.15736 20.7974 6.08167 20.6317 5.99146 20.4467H5.98205C5.91577 20.6315 5.83523 20.7972 5.73591 21.0198L5.47078 21.5972H4.64725L5.57006 19.9833L4.68025 18.4072H5.50847L5.78774 18.9897C5.88229 19.1839 5.95329 19.3401 6.02888 19.5198H6.03856C6.11406 19.3162 6.1757 19.1742 6.25589 18.9897L6.52579 18.4072H7.34937L6.45081 19.9641L7.39717 21.5972H6.5644ZM10.4167 21.5972H9.6971V20.2624H8.50916V21.5972H7.78512V18.4072H8.50916V19.6333H9.6971V18.4072H10.4167V21.5972ZM13.2557 19.0131H12.3849V21.5972H11.6607V19.0131H10.8039V18.4072H13.2557L13.2557 19.0131ZM16.3646 21.5972L16.3175 20.3762C16.3033 19.9929 16.289 19.529 16.289 19.0653H16.2751C16.1756 19.4722 16.0432 19.9265 15.9201 20.3006L15.5318 21.5455H14.9688L14.6278 20.3102C14.5239 19.9362 14.415 19.4816 14.3392 19.0653H14.3295C14.3106 19.4959 14.2964 19.9881 14.2728 20.3858L14.216 21.5972H13.5487L13.7523 18.4072H14.7128L15.0253 19.472C15.125 19.841 15.2243 20.2385 15.295 20.6127H15.3093C15.3989 20.2431 15.5078 19.8224 15.6121 19.4674L15.9528 18.4072H16.8947L17.0698 21.5972H16.3646ZM19.6158 21.5972H17.6232V18.4072H18.3474V20.9915H19.6158L19.6158 21.5972ZM4.23526 15.9805V0.941195H15.1374V5.75665C15.1374 6.01644 15.3479 6.22725 15.608 6.22725H19.7647L19.7651 15.9804L4.23526 15.9805Z" fill="#1B5E20"/>
<path d="M5.00465 10.2031L7.72091 11.4652V10.8652L5.66653 9.96546V9.95408L7.72091 9.05438V8.4543L5.00465 9.71626V10.2031Z" fill="#1B5E20"/>
<path d="M16.2794 9.05438L18.3786 9.95408V9.96546L16.2794 10.8652V11.4652L18.9953 10.22V9.6995L16.2794 8.4543V9.05438Z" fill="#1B5E20"/>
<path d="M11.9461 6.71881C10.1562 6.71881 8.70513 8.16982 8.70513 9.95981C8.70513 11.7495 10.1562 13.2005 11.9461 13.2005C13.736 13.2005 15.1868 11.7495 15.1868 9.95981C15.1868 8.16982 13.736 6.71881 11.9461 6.71881ZM13.164 8.00493L13.3957 7.85011C13.3957 7.85011 13.2982 7.60043 13.3147 7.47804C13.3711 7.45082 13.5992 7.57053 13.7922 7.77364C13.6622 8.25684 13.3574 8.19919 13.3574 8.19919C13.3574 8.19919 13.1346 8.19364 13.164 8.00493ZM11.2106 10.8589C11.1962 10.9313 11.1089 11.1056 11.051 11.2214C10.9931 11.3371 10.9643 11.3809 10.8913 11.4388C10.8186 11.4976 10.7755 11.5988 10.7755 11.5988L10.7609 11.8451C10.7609 11.8451 10.7894 12.0487 10.833 12.1213C10.8766 12.1935 10.6776 12.6259 10.6776 12.6259C10.5515 12.6009 10.4814 12.4545 10.4376 12.3391C10.3939 12.2224 10.3362 12.1609 10.3508 12.0305C10.3654 11.8999 10.2381 11.831 10.1951 11.7587C10.1518 11.6852 10.0934 11.5842 10.0934 11.5117C10.0934 11.4388 9.93404 11.3373 9.93404 11.3373C9.93404 11.3373 9.64374 11.2068 9.60019 11.1491C9.55664 11.091 9.51265 10.8437 9.49864 10.7425C9.4838 10.6413 9.54184 10.3804 9.54184 10.3804C9.54184 10.3804 9.65902 10.2922 9.5854 10.2205C9.51269 10.1479 9.49886 9.95898 9.49886 9.95898L9.36802 9.81431C9.36802 9.81431 9.26612 9.66912 9.25176 9.59637C9.23718 9.52397 9.25176 9.48046 9.26634 9.40749C9.2807 9.33452 9.23736 9.20469 9.23736 9.1322C9.77953 7.80327 10.6884 7.49284 10.6884 7.49284L10.7611 7.79679C10.7611 7.79679 10.6016 7.84083 10.515 7.81163C10.4274 7.7827 10.3835 7.7827 10.3835 7.7827L10.268 7.94208C10.268 7.94208 10.2236 8.04398 10.2094 8.10198C10.1951 8.16011 10.2383 8.24651 10.2383 8.24651C10.2383 8.24651 10.4411 8.26131 10.4411 8.20318C10.4411 8.14505 10.4127 8.11646 10.4127 8.11646L10.3835 8.01456C10.3835 8.01456 10.515 7.94186 10.8621 7.97057C11.2104 7.99994 11.0802 8.24629 11.2256 8.3049C11.3709 8.36304 11.1089 8.56583 11.051 8.68161C10.9931 8.79778 10.9061 8.53642 10.9061 8.53642C10.9061 8.53642 10.993 8.43622 10.8482 8.40602C10.703 8.37787 10.607 8.66725 10.6805 8.65316C10.7526 8.63876 10.8336 8.73129 10.8188 8.80378C10.8042 8.8764 10.8042 8.87053 10.7317 9.03008C10.6592 9.18955 10.5016 9.30764 10.5016 9.30764C10.5016 9.30764 10.4275 9.26273 10.4703 9.35006C10.5148 9.4369 10.4559 9.6397 10.4559 9.69805C10.4559 9.75574 10.2818 9.59641 10.2535 9.45082C10.2238 9.30677 10.0538 9.43248 9.99598 9.44706C9.93785 9.46185 9.83201 9.42211 9.804 9.3501C9.77432 9.27692 9.513 9.49486 9.44025 9.53819C9.36798 9.58184 9.39739 9.6981 9.51286 9.63997C9.62886 9.58183 9.73033 9.62539 9.70161 9.74235C9.6729 9.85769 9.55721 9.78564 9.57121 9.85769C9.58557 9.93018 9.70161 10.0028 9.73033 10.1047C9.75952 10.2059 10.0357 10.1193 10.1225 10.0755C10.2094 10.0315 10.4562 9.98844 10.4849 10.1047C10.515 10.2207 10.7901 10.2638 10.8915 10.2924C10.9934 10.3219 11.1964 10.3363 11.3129 10.4525C11.4282 10.5683 11.2256 10.7861 11.2106 10.8589ZM11.8632 7.46325C11.8484 7.60875 11.617 7.79688 11.6459 7.85549C11.6751 7.91384 11.6459 8.16212 11.4427 7.94418C11.2395 7.72632 11.0359 7.65243 11.051 7.50702C11.0546 7.47804 11.2611 7.43269 11.2645 7.38192C11.5722 7.09573 12.0635 7.15456 12.1012 7.22232C12.0134 7.36629 11.8781 7.31836 11.8632 7.46325ZM14.3846 8.43789C14.5806 8.77458 14.8676 9.67227 14.7614 9.833C14.6978 9.80424 14.6442 9.78026 14.6442 9.78026H14.2573L14.4892 10.0513C14.4892 10.0513 14.6015 10.2158 14.7605 10.2054C14.6557 11.4188 13.6429 12.1981 13.6429 12.1981C13.4885 12.0432 13.5657 11.9084 13.5657 11.9084L13.6093 11.676L13.6336 11.2845C13.6336 11.2845 13.6336 10.8786 13.2465 11.0715C12.8308 11.1776 13.004 11.1776 12.584 11.2068C12.1635 11.2358 12.233 10.3489 12.233 10.3489C12.233 9.02115 13.2513 10.0232 13.2513 10.0232C13.8322 10.4096 13.9094 9.70278 13.9094 9.70278L14.3349 9.54896L14.3735 9.35501L14.3115 9.08493L13.6934 8.82987C13.6934 8.82987 13.6341 9.03078 13.7927 9.27735C13.7927 9.27735 13.7398 9.55789 13.6095 9.48567L13.2513 9.30541C13.2513 9.30541 13.1309 9.25337 12.9374 9.36958C12.7437 9.4854 12.4159 9.36415 12.4159 9.36415C12.4159 9.36415 12.4422 9.16954 12.6461 9.06869L12.8125 8.95852C12.8125 8.95852 12.7688 8.75974 12.8069 8.60532C12.8451 8.4508 12.9133 8.58601 13.0679 8.46988C13.2224 8.35428 13.329 8.69711 13.561 8.65854C13.7929 8.61972 13.6773 8.58107 13.8325 8.50389C13.9875 8.42659 14.1033 8.65854 14.1033 8.65854L14.4122 8.69715C14.412 8.69671 14.3637 8.34723 14.3846 8.43789Z" fill="#1B5E20"/>
</svg>
