<svg width="24" height="24" viewBox="0 0 24 24" fill="none" xmlns="http://www.w3.org/2000/svg">
<g clip-path="url(#clip0_15_3990)">
<path d="M11.8819 18.0809C11.6194 18.0809 11.4416 18.1061 11.3482 18.1314V19.8171C11.4586 19.8424 11.5941 19.8511 11.7802 19.8511C12.4664 19.8511 12.8897 19.5036 12.8897 18.9193C12.8897 18.394 12.5257 18.0809 11.8819 18.0809Z" fill="#BF360C"/>
<path d="M6.96044 18.0809C6.69803 18.0809 6.52018 18.1061 6.42681 18.1314V19.8171C6.53721 19.8424 6.67264 19.8511 6.8588 19.8511C7.54493 19.8511 7.9683 19.5036 7.9683 18.9193C7.96826 18.394 7.60416 18.0809 6.96044 18.0809Z" fill="#BF360C"/>
<path d="M20.7012 5.75125C20.6998 5.64121 20.6645 5.53252 20.5889 5.4466L15.9618 0.160951C15.9605 0.159463 15.9591 0.159025 15.9582 0.157668C15.9306 0.126852 15.8984 0.101464 15.8644 0.0790529C15.8543 0.0725308 15.8441 0.0666653 15.8336 0.0607123C15.8042 0.0447354 15.7734 0.0315161 15.7407 0.0218424C15.732 0.0193036 15.7242 0.0157581 15.7155 0.0134819C15.6806 0.00494628 15.6442 0 15.6075 0H4.23526C3.71643 0 3.29407 0.42236 3.29407 0.941194V23.0588C3.29407 23.5779 3.71643 24 4.23526 24H19.7646C20.2834 24 20.7058 23.5779 20.7058 23.0588V5.804C20.7059 5.78631 20.703 5.76898 20.7012 5.75125ZM8.72228 20.2403C8.28158 20.6554 7.62933 20.8419 6.86708 20.8419C6.69781 20.8419 6.54535 20.8332 6.42681 20.8164V22.8575H5.14774V17.2252C5.54554 17.1576 6.10487 17.1066 6.89264 17.1066C7.68864 17.1066 8.25615 17.2592 8.63714 17.5639C9.00159 17.852 9.24698 18.326 9.24698 18.8851C9.24694 19.4444 9.06103 19.9186 8.72228 20.2403ZM13.6438 20.2403C13.2031 20.6554 12.5507 20.8419 11.7884 20.8419C11.6192 20.8419 11.4668 20.8332 11.3482 20.8164V22.8575H10.0692V17.2252C10.467 17.1576 11.0263 17.1066 11.8141 17.1066C12.6101 17.1066 13.1777 17.2592 13.5586 17.5639C13.9231 17.852 14.1685 18.326 14.1685 18.8851C14.1684 19.4444 13.9825 19.9186 13.6438 20.2403ZM18.9462 18.2332H17.3878V22.8575H16.0918V18.2332H14.5585V17.1491H18.9458L18.9462 18.2332ZM4.23526 15.9805V0.941194H15.1369V5.75664C15.1369 6.01643 15.3478 6.22723 15.6075 6.22723H19.7647V15.9804L4.23526 15.9805Z" fill="#BF360C"/>
<path d="M11.268 6.11386C9.14 6.11386 7.4155 7.8388 7.4155 9.96658C7.4155 12.0942 9.13996 13.8189 11.268 13.8189C13.3956 13.8189 15.1204 12.0942 15.1204 9.96658H11.268V6.11386Z" fill="#BF360C"/>
<path d="M11.7905 9.35858V9.35972H15.6433C15.6433 8.276 15.1938 7.29839 14.4737 6.59838L11.7905 9.35858Z" fill="#BF360C"/>
<path d="M11.7501 8.68164L14.4738 5.95764C13.7077 5.19132 12.7518 4.81746 11.7472 4.83181L11.7491 8.68072L11.7501 8.68164Z" fill="#BF360C"/>
</g>
<defs>
<clipPath id="clip0_15_3990">
<rect width="24" height="24" fill="white"/>
</clipPath>
</defs>
</svg>
