<svg width="24" height="24" viewBox="0 0 24 24" fill="none" xmlns="http://www.w3.org/2000/svg">
<path fill-rule="evenodd" clip-rule="evenodd" d="M3.5144 3.51454C-1.17147 8.20063 -1.17147 15.7988 3.5144 20.4849C8.20195 25.1717 15.7987 25.1717 20.4862 20.4849C25.1722 15.7988 25.1722 8.20063 20.4862 3.51454C15.7987 -1.17151 8.20185 -1.17151 3.5144 3.51454ZM5.63697 5.63566C9.15116 2.12077 14.8495 2.12077 18.3651 5.63566C21.8793 9.15055 21.8793 14.8488 18.3651 18.3637C14.8494 21.8787 9.15116 21.8787 5.63697 18.3637C2.12138 14.8489 2.12138 9.15055 5.63697 5.63566Z" fill="#5E6E7D"/>
<path fill-rule="evenodd" clip-rule="evenodd" d="M18.3651 5.63566C14.8495 2.12077 9.15116 2.12077 5.63697 5.63566C2.12138 9.15055 2.12138 14.8489 5.63697 18.3637C9.15116 21.8787 14.8494 21.8787 18.3651 18.3637C21.8793 14.8488 21.8793 9.15055 18.3651 5.63566ZM6.69751 15.1814L8.81863 17.3032L12.0003 14.1208L15.182 17.3032L17.3031 15.1814L14.1214 11.9997L17.3031 8.81802L15.182 6.69615L12.0003 9.87856L8.81863 6.69615L6.69751 8.81802L9.87917 11.9997L6.69751 15.1814Z" fill="#5E6E7D"/>
</svg>
